<?xml version="1.0" encoding="utf-8"?>
<!-- Generator: Adobe Illustrator 23.1.0, SVG Export Plug-In . SVG Version: 6.00 Build 0)  -->
<svg version="1.1" id="Capa_1" xmlns="http://www.w3.org/2000/svg" xmlns:xlink="http://www.w3.org/1999/xlink" x="0px" y="0px"
	 viewBox="0 0 1638 512" style="enable-background:new 0 0 1638 512;" xml:space="preserve">
<style type="text/css">
	.st0{fill:#FFF7DE;}
	.st1{font-family:'Lato-Light';}
	.st2{font-size:416.5836px;}
</style>
<path class="st0" d="M503.4,228.9l-43.3-39.4V58.8c0-8.3-6.7-15.1-15.1-15.1H341c-8.3,0-15.1,6.7-15.1,15.1v8.4l-52.2-47.6
	c-10.1-9.2-25.3-9.2-35.4,0L8.6,228.9c-8.1,7.4-10.7,18.7-6.8,28.9c3.9,10.2,13.6,16.8,24.5,16.8H63v209.7c0,8.3,6.7,15.1,15.1,15.1
	h123V338.5h109.8v160.9H434c8.3,0,15.1-6.7,15.1-15.1V274.5h36.7c10.9,0,20.5-6.6,24.5-16.8C514.1,247.6,511.5,236.2,503.4,228.9z"
	/>
<text transform="matrix(1 0 0 1 567.0002 430.9998)" class="st0 st1 st2">SAYU</text>
</svg>
